<svg width="43" height="29" viewBox="0 0 43 29" fill="none" xmlns="http://www.w3.org/2000/svg">
<g clip-path="url(#clip0_127_352)">
<path d="M0 0H43V29H0V0Z" fill="white"/>
<path d="M0 0H43V4.83333H0V0Z" fill="black"/>
<path d="M0 9.6665H43V14.4998H0V9.6665Z" fill="black"/>
<path d="M0 19.3335H43V24.1668H0V19.3335Z" fill="black"/>
<path d="M3.58333 24.1665L17.9167 9.6665V24.1665L14.3333 28.9998H0L3.58333 24.1665Z" fill="#750787"/>
<path d="M39.4167 24.1665L25.0834 9.6665V24.1665L28.6667 28.9998H43L39.4167 24.1665Z" fill="#750787"/>
<path d="M7.16671 19.3333L21.5 14.5L35.8334 19.3333L39.4167 24.1667H25.0834L21.5 19.3333L17.9167 24.1667H3.58337L7.16671 19.3333Z" fill="#004DFF"/>
<path d="M10.75 14.4998L21.5 9.6665L32.25 14.4998L35.8333 19.3332H7.16663L10.75 14.4998Z" fill="#008026"/>
<path d="M14.3333 9.66683L21.5 4.8335L28.6667 9.66683L32.25 14.5002H10.75L14.3333 9.66683Z" fill="#FFED00"/>
<path d="M17.9167 4.83317L21.5 2.4165L25.0834 4.83317L28.6667 9.6665H14.3334L17.9167 4.83317Z" fill="#FF8C00"/>
<path d="M17.9166 4.83333L21.5 0L25.0833 4.83333H17.9166Z" fill="#E40303"/>
</g>
<defs>
<clipPath id="clip0_127_352">
<rect width="43" height="29" rx="4" fill="white"/>
</clipPath>
</defs>
</svg>
